<?xml version="1.0" encoding="UTF-8"?>
<svg width="452px" height="452px" viewBox="0 0 452 452" version="1.1" xmlns="http://www.w3.org/2000/svg" xmlns:xlink="http://www.w3.org/1999/xlink">
    <!-- Generator: Sketch 51.1 (57501) - http://www.bohemiancoding.com/sketch -->
    <title>Contracten</title>
    <desc>Created with Sketch.</desc>
    <defs>
        <rect id="path-1" x="52" y="0" width="346" height="664" rx="9"></rect>
        <filter x="-41.0%" y="-21.1%" width="182.1%" height="142.8%" filterUnits="objectBoundingBox" id="filter-2">
            <feOffset dx="0" dy="2" in="SourceAlpha" result="shadowOffsetOuter1"></feOffset>
            <feGaussianBlur stdDeviation="47" in="shadowOffsetOuter1" result="shadowBlurOuter1"></feGaussianBlur>
            <feColorMatrix values="0 0 0 0 0.278431373   0 0 0 0 0.301960784   0 0 0 0 0.439215686  0 0 0 1 0" type="matrix" in="shadowBlurOuter1"></feColorMatrix>
        </filter>
        <filter x="-76.6%" y="-5.1%" width="231.9%" height="115.9%" filterUnits="objectBoundingBox" id="filter-3">
            <feOffset dx="-5" dy="11" in="SourceAlpha" result="shadowOffsetOuter1"></feOffset>
            <feGaussianBlur stdDeviation="8.5" in="shadowOffsetOuter1" result="shadowBlurOuter1"></feGaussianBlur>
            <feColorMatrix values="0 0 0 0 0   0 0 0 0 0   0 0 0 0 0  0 0 0 0.135190217 0" type="matrix" in="shadowBlurOuter1" result="shadowMatrixOuter1"></feColorMatrix>
            <feMerge>
                <feMergeNode in="shadowMatrixOuter1"></feMergeNode>
                <feMergeNode in="SourceGraphic"></feMergeNode>
            </feMerge>
        </filter>
    </defs>
    <g id="Contracten" stroke="none" stroke-width="1" fill="none" fill-rule="evenodd">
        <rect fill="#F5F6F9" x="0" y="0" width="452" height="452"></rect>
        <g id="Document-1" transform="translate(90.000000, -289.000000)" fill-rule="nonzero">
            <rect id="Rectangle-2" fill="#FFFFFF" opacity="0.699999988" transform="translate(224.000000, 387.000000) rotate(-4.000000) translate(-224.000000, -387.000000) " x="22" y="66" width="404" height="642" rx="5"></rect>
            <g id="Rectangle-4">
                <use fill="black" fill-opacity="1" filter="url(#filter-2)" xlink:href="#path-1"></use>
                <use fill="#FFFFFF" xlink:href="#path-1"></use>
            </g>
            <rect id="Rectangle-2" fill="#FFFFFF" x="2" y="49" width="404" height="642" rx="5"></rect>
            <g id="Group-2" transform="translate(45.000000, 319.000000)">
                <rect id="Rectangle-5" fill="#40D3BD" x="1" y="179" width="100.952381" height="5.86363636" rx="2.93181818"></rect>
                <rect id="Rectangle-5" fill="#40D3BD" x="115" y="179" width="63.0952381" height="5.86363636" rx="2.93181818"></rect>
                <rect id="Rectangle-5" fill="#EAEBEE" x="1" y="21" width="316.541284" height="5.86363636" rx="2.93181818"></rect>
                <rect id="Rectangle-5-Copy" fill="#EAEBEE" x="1" y="0.954545455" width="316.541284" height="5.86363636" rx="2.93181818"></rect>
                <rect id="Rectangle-5" fill="#EAEBEE" x="0" y="41.0454545" width="316.541284" height="5.86363636" rx="2.93181818"></rect>
                <rect id="Rectangle-5" fill="#EAEBEE" x="0" y="61.5681818" width="316.541284" height="5.86363636" rx="2.93181818"></rect>
                <rect id="Rectangle-5" fill="#EAEBEE" x="0" y="82.0909091" width="316.541284" height="5.86363636" rx="2.93181818"></rect>
                <rect id="Rectangle-5" fill="#EAEBEE" x="0" y="102.613636" width="316.541284" height="5.86363636" rx="2.93181818"></rect>
                <rect id="Rectangle-5" fill="#EAEBEE" x="0" y="123.136364" width="316.541284" height="5.86363636" rx="2.93181818"></rect>
            </g>
        </g>
        <rect id="Rectangle-15" fill="#E8E9ED" fill-rule="nonzero" opacity="0.300000012" transform="translate(261.000000, 299.500000) scale(-1, -1) translate(-261.000000, -299.500000) " x="135" y="240" width="252" height="119" rx="5"></rect>
        <path d="M175.314874,293.39002 C174.92819,293.638602 174.582943,293.652412 174.27912,293.43145 C174.113399,293.293349 173.982205,293.162155 173.885534,293.037864 C173.788863,292.913573 173.768148,292.740949 173.823389,292.519987 C173.851009,292.381886 173.933868,292.229977 174.07197,292.064256 C174.210071,291.898534 174.341265,291.75353 174.465556,291.629239 C174.589847,291.504948 174.679611,291.422089 174.734852,291.380659 C174.790092,291.339228 174.776282,291.359943 174.693422,291.442804 C175.577269,290.669437 176.433483,289.840843 177.26209,288.956996 C178.090697,288.073149 178.877861,287.175505 179.623607,286.264037 C180.176012,285.573532 180.742218,284.841606 181.322243,284.06824 C181.902267,283.294874 182.427044,282.500804 182.896588,281.686008 C183.366132,280.871211 183.745904,280.049521 184.035916,279.220915 C184.325929,278.392308 184.457123,277.584428 184.429503,276.797252 C184.401882,276.010075 184.180924,275.250531 183.766621,274.518595 C183.352317,273.786659 182.689442,273.116878 181.777974,272.509233 C180.314102,271.542525 178.725963,270.976319 177.013509,270.810598 C175.301055,270.644876 173.616246,270.810595 171.959033,271.307759 C170.301819,271.804923 168.762015,272.619708 167.339573,273.752137 C165.917131,274.884566 164.750194,276.251747 163.838727,277.85372 C162.761538,279.759516 162.174617,281.540994 162.077946,283.198207 C161.981275,284.855421 162.188424,286.436655 162.699398,287.941958 C163.210372,289.44726 163.935392,290.91111 164.87448,292.333552 C165.813568,293.755993 166.780261,295.185319 167.774589,296.62157 C168.409855,297.588278 169.01749,298.575687 169.597515,299.583825 C170.17754,300.591963 170.702316,301.620801 171.17186,302.67037 C171.669024,303.802799 172.083321,304.990451 172.414764,306.233361 C172.497625,306.537184 172.566674,306.785762 172.621915,306.979104 C172.677155,307.172445 172.911924,307.200065 173.326227,307.061964 C173.491948,307.006723 173.650762,306.951484 173.802674,306.896243 C173.954585,306.841003 174.113399,306.785763 174.27912,306.730523 C175.825853,306.260979 177.407087,305.853587 179.02287,305.508334 C180.638654,305.163081 182.233698,304.893788 183.808051,304.700446 C184.111873,304.672826 184.353547,304.74878 184.533078,304.928312 C184.712609,305.107843 184.816184,305.349517 184.843804,305.653339 C184.843804,305.929542 184.74023,306.171215 184.533078,306.378367 C184.325926,306.585518 184.084253,306.702902 183.808051,306.730523 C183.062305,306.785763 182.31657,306.875528 181.570824,306.999819 C180.825077,307.12411 180.093152,307.269114 179.375027,307.434835 C178.57404,307.600556 177.79378,307.78699 177.034224,307.994142 C176.274668,308.201293 175.508218,308.415347 174.734852,308.636309 C174.624371,308.663929 174.520796,308.691549 174.424126,308.719169 C174.327455,308.746789 174.223881,308.774409 174.1134,308.802029 C173.920058,308.85727 173.747434,308.8987 173.595523,308.92632 C173.443612,308.95394 173.326228,309.002275 173.243367,309.071325 C173.160506,309.140376 173.105267,309.23014 173.077646,309.340621 C173.050026,309.451102 173.063836,309.630631 173.119076,309.879213 C173.174317,310.348757 173.215747,310.797579 173.243367,311.225692 C173.270987,311.653806 173.284797,312.102628 173.284797,312.572171 C173.257177,314.643688 172.925739,316.390642 172.290474,317.813083 C171.655209,319.235525 170.861139,320.361032 169.908241,321.189639 C168.955343,322.018246 167.926505,322.563737 166.821696,322.826129 C165.716887,323.088521 164.674239,323.102331 163.693721,322.867559 C162.713203,322.632787 161.884609,322.163251 161.207913,321.458935 C160.531218,320.754619 160.165255,319.83626 160.110015,318.703831 C160.054774,317.543782 160.248113,316.480419 160.690037,315.513711 C161.13196,314.547003 161.732691,313.670074 162.492247,312.882897 C163.251804,312.095721 164.108018,311.398321 165.060916,310.790676 C166.013813,310.183031 166.973602,309.644444 167.94031,309.174901 C168.161272,309.06442 168.38223,308.960845 168.603192,308.864175 C168.824154,308.767504 169.045112,308.677739 169.266074,308.594879 L169.266074,308.553449 C169.514656,308.470588 169.777044,308.360109 170.053247,308.222007 C170.163728,308.139147 170.260397,308.056287 170.343258,307.973427 C170.426118,307.890566 170.481358,307.780087 170.508978,307.641986 C170.536598,307.448644 170.508979,307.23459 170.426118,306.999819 C170.343257,306.765047 170.274208,306.550993 170.218967,306.357652 C169.749423,304.866159 169.197027,303.498979 168.561762,302.256068 C167.926497,301.013158 167.180762,299.728837 166.324535,298.403066 C165.71689,297.463978 165.102349,296.538715 164.480894,295.627247 C163.859439,294.71578 163.258708,293.776706 162.678683,292.809998 C161.297672,290.517519 160.448362,288.121501 160.13073,285.62187 C159.813097,283.12224 160.289539,280.532882 161.560069,277.85372 C162.471537,275.947925 163.707524,274.304546 165.268066,272.923534 C166.828609,271.542523 168.541037,270.49297 170.405403,269.774844 C172.269768,269.056718 174.203155,268.704566 176.205621,268.718376 C178.208088,268.732186 180.10695,269.167198 181.902265,270.023425 C183.7252,270.907272 184.974996,271.97754 185.651692,273.23426 C186.328387,274.490981 186.59768,275.837447 186.459579,277.273698 C186.321478,278.70995 185.858846,280.194515 185.07167,281.727438 C184.284493,283.26036 183.338515,284.73802 182.233706,286.160462 C181.128897,287.582904 179.96196,288.922464 178.732859,290.179185 C177.503759,291.435905 176.364442,292.506173 175.314874,293.39002 Z M167.153137,320.609617 C168.69987,319.919111 169.818472,318.800509 170.508978,317.253776 C170.950902,316.231828 171.19948,315.251325 171.254721,314.312237 C171.309961,313.373149 171.296151,312.378836 171.21329,311.329267 L171.21329,310.977111 C171.21329,310.880441 171.19948,310.763056 171.17186,310.624955 C171.17186,310.265892 171.095906,310.065649 170.943995,310.024218 C170.792083,309.982788 170.56422,310.031123 170.260397,310.169224 C169.210829,310.666388 168.202706,311.184259 167.235998,311.722854 C166.26929,312.261448 165.344026,312.931229 164.460179,313.732215 C163.35537,314.809404 162.671779,315.865862 162.409387,316.90162 C162.146995,317.937379 162.188425,318.814308 162.533678,319.532434 C162.87893,320.25056 163.465851,320.733906 164.294458,320.982488 C165.123065,321.23107 166.075949,321.106781 167.153137,320.609617 Z M183.923134,308.304868 C183.950755,307.531501 184.047424,306.771957 184.213145,306.02621 C184.378867,305.280464 184.599825,304.548539 184.876028,303.830413 C185.014129,303.44373 185.193657,302.981098 185.414619,302.442504 C185.635581,301.90391 185.85654,301.468898 186.077501,301.137455 C186.270843,300.861253 186.498706,300.681724 186.761099,300.598863 C187.023491,300.516002 187.306594,300.585052 187.610416,300.806014 C188.05234,301.165077 188.121389,301.620804 187.817567,302.173208 C187.541365,302.642752 187.306596,303.077764 187.113255,303.478257 C186.919913,303.878751 186.740384,304.341382 186.574663,304.866167 C186.408942,305.335711 186.263938,305.839772 186.139647,306.378367 C186.015356,306.916961 185.925591,307.421023 185.870351,307.890566 C185.81511,308.30487 185.808205,308.581068 185.849636,308.719169 C185.891066,308.85727 186.09131,308.719171 186.450373,308.304868 C187.002777,307.641982 187.562078,306.979107 188.128293,306.316221 C188.694508,305.653336 189.253809,304.976651 189.806213,304.286145 L190.075509,304.016849 C190.14456,303.947798 190.151465,303.830414 190.096224,303.664693 C189.985743,302.946567 189.965028,302.311311 190.034079,301.758907 C190.10313,301.206502 190.234324,300.612676 190.427665,299.977411 C190.538146,299.590728 190.676245,299.176431 190.841967,298.734507 C191.007688,298.292583 191.311506,298.044005 191.75343,297.988765 C192.305834,297.961144 192.754656,298.175198 193.099909,298.630932 C193.445162,299.086666 193.659215,299.549297 193.742076,300.018841 C193.907797,301.372232 193.617789,302.628934 192.872043,303.788983 C192.733942,304.009945 192.637273,304.161854 192.582032,304.244715 C192.526792,304.327575 192.582031,304.479484 192.747753,304.700446 C193.162056,305.280471 193.783502,305.708578 194.612109,305.98478 C195.440715,306.260983 196.365979,306.426701 197.387928,306.481942 C198.409876,306.537182 199.487049,306.509563 200.619478,306.399082 C201.751907,306.288601 202.84289,306.129787 203.892458,305.922635 C204.942027,305.715483 205.915625,305.50143 206.813283,305.280468 C207.71094,305.059506 208.43596,304.866168 208.988365,304.700446 C209.375048,304.589965 209.671961,304.59687 209.879113,304.721161 C210.086264,304.845452 210.210553,305.011171 210.251984,305.218323 C210.293414,305.425475 210.251984,305.639528 210.127693,305.86049 C210.003402,306.081452 209.803159,306.233361 209.526956,306.316221 C209.471716,306.343842 209.430286,306.357652 209.402666,306.357652 C209.375046,306.357652 209.347426,306.371461 209.319806,306.399082 C208.270237,306.702904 206.951391,307.006722 205.363228,307.310545 C203.775065,307.614367 202.138591,307.821516 200.453757,307.931997 C198.768924,308.042477 197.14626,307.994143 195.585717,307.786991 C194.025174,307.579839 192.747758,307.089588 191.75343,306.316221 C191.560088,306.1505 191.449609,306.046926 191.421988,306.005495 C191.394368,305.964065 191.325319,306.0124 191.214838,306.150501 C190.690054,306.785766 190.172182,307.400307 189.661208,307.994142 C189.150234,308.587977 188.618552,309.202517 188.066148,309.837783 C187.928047,310.031124 187.783043,310.210653 187.631131,310.376374 C187.47922,310.542096 187.320406,310.721625 187.154685,310.914966 C186.850862,311.218789 186.477995,311.315458 186.036071,311.204977 C184.599819,310.763053 183.895514,309.79636 183.923134,308.304868 Z M220.248154,284.399681 C220.662458,283.930137 221.131994,283.874898 221.656779,284.233961 L221.905359,284.482541 C222.098701,284.758744 222.174656,285.000417 222.133225,285.207569 C222.091795,285.41472 221.988221,285.628774 221.822499,285.849736 C220.855791,286.982165 219.971957,288.114577 219.170971,289.247007 C218.369984,290.379436 217.651869,291.546373 217.016604,292.747853 C216.381339,293.949333 215.801323,295.192224 215.276538,296.476565 C214.751754,297.760905 214.268407,299.134991 213.826484,300.598863 L213.205032,302.83609 C213.03931,303.443735 212.818352,304.293044 212.542149,305.384043 C212.265947,306.475042 212.058799,307.607455 211.920697,308.781314 C211.782596,309.955174 211.775691,311.059966 211.899982,312.095725 C212.024273,313.131483 212.404046,313.870313 213.039311,314.312237 L213.246462,314.477958 C213.743626,314.75416 214.247687,314.816304 214.758662,314.664393 C215.269636,314.512482 215.752982,314.256999 216.208716,313.897936 C216.66445,313.538873 217.078747,313.138385 217.45162,312.696462 C217.824493,312.254538 218.135216,311.867861 218.383798,311.536418 L218.549519,311.329267 L220.041003,309.340621 C220.538168,308.677736 221.021514,308.02867 221.491058,307.393405 C222.540627,305.984773 223.624704,304.596878 224.743324,303.229676 C225.861943,301.862475 226.821731,300.40553 227.622718,298.858798 C227.733199,298.637836 227.912727,298.251158 228.16131,297.698754 C228.409892,297.146349 228.6999,296.600858 229.031342,296.062264 C229.362785,295.523669 229.708033,295.074847 230.067096,294.715784 C230.426159,294.356721 230.771406,294.232432 231.102849,294.342913 C231.461912,294.481014 231.627631,294.846977 231.600011,295.440812 C231.57239,296.034646 231.455006,296.669902 231.247854,297.346598 C231.040703,298.023293 230.799029,298.679264 230.522827,299.314529 C230.246625,299.949794 230.053286,300.377901 229.942805,300.598863 C229.500882,301.648432 229.114204,302.842989 228.782761,304.18257 C228.451319,305.522151 228.195836,306.889331 228.016304,308.284153 C227.836773,309.678974 227.767723,311.059965 227.809153,312.427166 C227.850584,313.794367 228.023208,315.030354 228.32703,316.135163 C228.768954,317.460934 229.411114,318.503582 230.253531,319.263138 C231.095948,320.022694 232.055737,320.554375 233.132925,320.858198 C234.210114,321.16202 235.356336,321.265595 236.571626,321.168924 C237.786916,321.072253 238.974568,320.83058 240.134618,320.443897 C241.902312,319.891492 243.635456,319.125042 245.334099,318.144524 C247.032743,317.164006 248.641597,316.038499 250.16071,314.767968 C251.679822,313.497438 253.081528,312.109542 254.365868,310.60424 C255.650209,309.098938 256.748096,307.545323 257.659564,305.94335 C258.764373,304.037555 259.648207,301.952259 260.311092,299.6874 C260.973978,297.422542 261.319226,295.143907 261.346846,292.851428 C261.374466,290.558949 261.022313,288.335555 260.290377,286.181177 C259.558441,284.026799 258.350075,282.107222 256.665241,280.422388 C255.256609,279.013757 253.7099,277.971109 252.025066,277.294413 C250.340232,276.617718 248.607089,276.231041 246.825584,276.13437 C245.04408,276.037699 243.248792,276.217228 241.439667,276.672961 C239.630542,277.128695 237.897399,277.784666 236.240185,278.640893 C236.046844,278.751374 235.8466,278.868758 235.639448,278.993049 C235.432297,279.11734 235.225148,279.214009 235.017996,279.28306 C234.810845,279.35211 234.603696,279.372825 234.396544,279.345205 C234.189393,279.317585 233.989149,279.193296 233.795808,278.972334 C233.630086,278.751372 233.547227,278.544223 233.547227,278.350882 C233.547227,278.15754 233.609371,277.984916 233.733662,277.833005 C233.857953,277.681094 234.009862,277.53609 234.189394,277.397989 C234.368925,277.259888 234.541549,277.149408 234.70727,277.066548 L234.872991,276.983687 C237.358811,275.575056 239.968884,274.677412 242.703286,274.290729 C245.437688,273.904046 248.047761,274.04905 250.533581,274.725745 C253.019402,275.402441 255.277321,276.610808 257.307408,278.350882 C259.337494,280.090956 260.891109,282.369591 261.968298,285.186854 C262.935006,287.838395 263.418352,290.489897 263.418352,293.141439 C263.418352,295.792981 262.976435,298.444483 262.092588,301.096025 C261.457323,303.084681 260.635634,304.955923 259.627495,306.709808 C258.619357,308.463692 257.45242,310.127786 256.126649,311.702139 C255.325662,312.696467 254.386589,313.697685 253.3094,314.705823 C252.232211,315.713962 251.072179,316.68756 249.829269,317.626648 C248.586359,318.565735 247.281323,319.428854 245.914121,320.216031 C244.54692,321.003207 243.15212,321.645368 241.729678,322.142532 C240.307236,322.639696 238.884816,322.971134 237.462374,323.136855 C236.039933,323.302577 234.652037,323.219717 233.298646,322.888274 L233.050065,322.846844 L232.760054,322.763984 C231.07522,322.32206 229.73566,321.58323 228.741331,320.547472 C227.747003,319.511713 227.015078,318.310252 226.545534,316.94305 C226.07599,315.575849 225.820507,314.118904 225.779077,312.572171 C225.737647,311.025439 225.827411,309.506349 226.048373,308.014857 C226.048373,307.931996 226.089802,307.704133 226.172663,307.33126 C226.255524,306.958387 226.317668,306.571709 226.359099,306.171216 C226.400529,305.770723 226.414339,305.411665 226.400529,305.094032 C226.386719,304.7764 226.296954,304.645206 226.131233,304.700446 C226.020752,304.755687 225.834318,304.935215 225.571926,305.239038 C225.309534,305.54286 225.005716,305.915728 224.660463,306.357652 C224.31521,306.799575 223.949248,307.282922 223.562565,307.807706 C223.175882,308.33249 222.809919,308.843457 222.464666,309.340621 C222.119413,309.837785 221.801786,310.279702 221.511773,310.666385 C221.221761,311.053068 221.021517,311.329267 220.911036,311.494988 C220.496733,312.102633 220.047911,312.786223 219.564557,313.54578 C219.081203,314.305336 218.535712,314.995831 217.928067,315.617286 C217.320422,316.238741 216.650641,316.735898 215.918705,317.108771 C215.186769,317.481644 214.36508,317.571408 213.453612,317.378067 C212.569765,317.157105 211.872365,316.770428 211.361391,316.218023 C210.850417,315.665619 210.470644,315.037268 210.222062,314.332952 C209.97348,313.628636 209.821571,312.882901 209.766331,312.095725 C209.71109,311.308548 209.71109,310.569718 209.766331,309.879213 C209.959672,307.559114 210.339445,305.245954 210.905659,302.939666 C211.471874,300.633377 212.210704,298.389267 213.122171,296.207269 C214.033639,294.025271 215.090097,291.939975 216.291576,289.951319 C217.493056,287.962663 218.811902,286.112135 220.248154,284.399681 Z M295.434638,306.067641 C293.004058,307.034349 290.407796,307.821513 287.645773,308.429158 C284.883751,309.036803 282.163199,309.299191 279.484037,309.216331 C278.793532,309.18871 278.096131,309.140376 277.391816,309.071325 C276.6875,309.002275 275.990099,308.8987 275.299594,308.760599 C275.023392,308.705359 274.836958,308.670834 274.740287,308.657024 C274.643616,308.643214 274.470992,308.719168 274.22241,308.88489 C273.255702,309.520155 272.247579,310.031121 271.198011,310.417805 C270.148442,310.804488 269.01603,310.818298 267.80074,310.459235 L267.71788,310.417805 L267.593589,310.376374 L267.427869,310.293514 C266.737363,310.017312 266.247111,309.637539 265.957099,309.154185 C265.667087,308.670832 265.515178,308.13915 265.501367,307.559125 C265.487557,306.979101 265.584227,306.39218 265.791378,305.798345 C265.99853,305.20451 266.267823,304.645209 266.599266,304.120424 C266.682127,303.982323 266.758081,303.871844 266.827132,303.788983 C266.896182,303.706123 266.951422,303.637073 266.992852,303.581833 C267.034283,303.526592 267.061902,303.450638 267.075712,303.353967 C267.089523,303.257296 267.096428,303.112292 267.096428,302.918951 C267.068807,302.062723 267.179287,301.358418 267.427869,300.806014 C267.676451,300.253609 268.145987,299.715023 268.836493,299.190239 C269.858442,298.472113 270.970139,298.16139 272.171619,298.258061 C273.373099,298.354731 274.498606,298.679264 275.548175,299.231669 C275.658656,299.286909 275.755325,299.342149 275.838186,299.397389 C275.921046,299.45263 276.017716,299.507869 276.128196,299.56311 C276.901563,300.087894 277.440149,300.66791 277.743972,301.303175 C278.047794,301.938441 278.172083,302.587506 278.116843,303.250392 C278.061602,303.913277 277.854454,304.583057 277.495391,305.259753 C277.136328,305.936449 276.694411,306.564799 276.169627,307.144824 C276.114386,307.227685 276.052242,307.289829 275.983191,307.33126 C275.91414,307.37269 275.948665,307.407215 276.086766,307.434835 C276.722032,307.572936 277.440147,307.6627 278.241133,307.704131 C279.04212,307.745561 279.774045,307.766276 280.43693,307.766276 C281.67984,307.738656 282.936542,307.628177 284.207072,307.434835 C285.477603,307.241493 286.734304,306.99982 287.977214,306.709808 C289.220125,306.419795 290.407777,306.102167 291.540206,305.756915 C292.672635,305.411662 293.708378,305.059509 294.647466,304.700446 C294.923668,304.589965 295.186056,304.576155 295.434638,304.659016 C295.68322,304.741877 295.855844,304.866166 295.952515,305.031887 C296.049186,305.197609 296.069901,305.384042 296.01466,305.591194 C295.95942,305.798346 295.766081,305.95716 295.434638,306.067641 Z M269.457945,304.286145 C270.01035,304.89379 270.569651,305.370232 271.135866,305.715484 C271.70208,306.060737 272.371861,306.38527 273.145227,306.689093 C273.366189,306.771953 273.531908,306.841003 273.642389,306.896243 C273.752869,306.951484 273.849539,306.979104 273.932399,306.979104 C274.01526,306.979104 274.105025,306.944579 274.201695,306.875528 C274.298366,306.806478 274.42956,306.689093 274.595282,306.523372 C274.899104,306.21955 275.209827,305.874302 275.52746,305.487619 C275.845092,305.100936 276.100575,304.686638 276.293917,304.244715 C276.487259,303.802791 276.577023,303.360874 276.563213,302.918951 C276.549403,302.477027 276.362969,302.03511 276.003906,301.593186 C275.037198,300.571238 273.877166,300.005032 272.523775,299.894551 C272.164712,299.866931 271.78494,299.88074 271.384446,299.935981 C270.983953,299.991221 270.597276,300.094796 270.224403,300.246707 C269.85153,300.398618 269.513187,300.598862 269.209364,300.847444 C268.905542,301.096026 268.670773,301.399844 268.505052,301.758907 C268.339331,302.11797 268.40838,302.187019 268.712203,301.966057 C269.236987,301.606995 269.775573,301.296272 270.327978,301.033879 C270.880382,300.771487 271.474208,300.806012 272.109474,301.137455 C272.385676,301.330796 272.468535,301.53104 272.358054,301.738192 C272.247574,301.945343 272.06114,302.138682 271.798748,302.318214 C271.536355,302.497745 271.246347,302.656559 270.928715,302.79466 C270.611082,302.932761 270.397029,303.029431 270.286548,303.084671 C270.176067,303.139911 270.079398,303.195151 269.996537,303.250392 C269.913676,303.305632 269.817007,303.374682 269.706526,303.457542 C269.513184,303.595643 269.375085,303.713028 269.292225,303.809698 C269.209364,303.906369 269.264604,304.065183 269.457945,304.286145 Z M267.510729,308.387728 C267.842172,308.719171 268.201229,308.933224 268.587912,309.029895 C268.974596,309.126566 269.368178,309.154186 269.768671,309.112755 C270.169164,309.071325 270.569652,308.974656 270.970145,308.822744 C271.370638,308.670833 271.750411,308.512019 272.109474,308.346298 C272.275195,308.263437 272.392579,308.201293 272.46163,308.159862 C272.53068,308.118432 272.454726,308.056287 272.233764,307.973427 C271.432777,307.641984 270.742282,307.324356 270.162257,307.020534 C269.582233,306.716711 268.974597,306.247174 268.339332,305.611909 C268.20123,305.473808 268.118371,305.377139 268.090751,305.321898 C268.063131,305.266658 267.994081,305.308087 267.8836,305.446189 C267.579778,305.888112 267.351914,306.371459 267.200003,306.896243 C267.048092,307.421028 267.151666,307.918184 267.510729,308.387728 Z M318.170575,305.94335 C317.038145,306.606236 315.829778,307.172442 314.545438,307.641986 C313.261097,308.111529 311.956061,308.525827 310.63029,308.88489 C309.304519,309.243953 307.964959,309.540866 306.611567,309.775637 C305.258176,310.010409 303.946235,310.210653 302.675705,310.376374 C302.344262,310.431615 302.054254,310.576619 301.805672,310.811391 C301.55709,311.046163 301.349941,311.315456 301.18422,311.619278 C300.880398,312.171683 300.597295,312.64122 300.334902,313.027903 C300.07251,313.414586 299.734168,313.870313 299.319864,314.395097 C298.684599,315.140843 297.959579,315.810624 297.144782,316.404459 C296.329985,316.998294 295.397817,317.281397 294.348248,317.253776 C294.099666,317.253776 293.864898,317.143297 293.643936,316.922335 C293.533455,316.811854 293.464406,316.69447 293.436785,316.570179 C293.409165,316.445888 293.395355,316.314694 293.395355,316.176593 C293.395355,315.734669 293.47131,315.341087 293.623221,314.995834 C293.775132,314.650581 293.989186,314.312239 294.265388,313.980796 L294.348248,313.856506 C294.928273,313.13838 295.598053,312.475504 296.35761,311.867859 C297.117166,311.260214 297.897426,310.735438 298.698412,310.293514 C299.085095,310.072552 299.368198,309.906833 299.54773,309.796353 C299.727261,309.685872 299.817026,309.409673 299.817026,308.96775 C299.817026,308.277244 299.616782,307.766278 299.216289,307.434835 C298.815796,307.103392 298.353164,306.799574 297.828379,306.523372 C297.303595,306.24717 296.778819,305.943352 296.254034,305.611909 C295.72925,305.280466 295.342573,304.7695 295.093991,304.078994 C294.955889,303.498969 295.031844,302.925858 295.321856,302.359644 C295.611869,301.793429 296.012356,301.275558 296.52333,300.806014 C297.034304,300.33647 297.600511,299.915268 298.221966,299.542395 C298.843421,299.169522 299.416532,298.886419 299.941316,298.693077 C300.245139,298.554976 300.507527,298.541166 300.728489,298.651647 C300.94945,298.762128 301.128979,298.900227 301.26708,299.065948 C301.405182,299.28691 301.432801,299.556203 301.349941,299.873836 C301.26708,300.191468 301.018502,300.460762 300.604198,300.681723 C300.438477,300.764584 300.189899,300.902683 299.858456,301.096025 C299.527013,301.289366 299.195575,301.496515 298.864133,301.717477 C298.53269,301.938438 298.242682,302.187017 297.9941,302.463219 C297.745518,302.739421 297.621229,303.00181 297.621229,303.250392 C297.648849,303.692315 297.773138,304.016848 297.9941,304.224 C298.215062,304.431151 298.50507,304.631395 298.864133,304.824737 C299.333677,305.045698 299.761784,305.280467 300.148467,305.529049 C300.53515,305.777631 300.880398,306.095259 301.18422,306.481942 C301.460422,306.813385 301.653761,307.137917 301.764242,307.45555 C301.874723,307.773183 301.943772,308.194385 301.971393,308.719169 C301.971393,308.88489 302.068062,308.96775 302.261404,308.96775 C305.216768,308.608687 307.930414,308.090815 310.402425,307.41412 C312.874435,306.737424 315.229024,305.832875 317.466262,304.700446 C317.825325,304.507105 318.136048,304.424245 318.39844,304.451865 C318.660832,304.479486 318.840361,304.562345 318.937032,304.700446 C319.033703,304.838547 319.026798,305.024981 318.916317,305.259753 C318.805836,305.494525 318.557258,305.722388 318.170575,305.94335 Z M349.772559,304.451865 C349.993521,304.728068 349.744943,305.17689 349.026817,305.798345 C348.308691,306.4198 347.335092,307.068865 346.105992,307.745561 C344.876892,308.422257 343.488997,309.064417 341.942264,309.672062 C340.395531,310.279707 338.890252,310.714719 337.42638,310.977111 C335.962508,311.239503 334.643662,311.267123 333.469802,311.059972 C332.295942,310.85282 331.488063,310.279709 331.046139,309.340621 C330.742317,308.705356 330.624932,308.02867 330.693983,307.310545 C330.763034,306.592419 330.894228,305.915733 331.087569,305.280468 C331.280911,304.645203 331.467345,304.106617 331.646876,303.664693 C331.826408,303.222769 331.860932,302.946571 331.750451,302.83609 C331.63997,302.697989 331.329248,302.905138 330.818273,303.457542 C330.307299,304.009947 329.40275,304.866161 328.1046,306.02621 C327.883638,306.219552 327.62125,306.426701 327.317427,306.647662 C327.013605,306.868624 326.709787,306.992913 326.405964,307.020534 C326.157382,307.020534 325.950234,306.923864 325.784512,306.730523 C325.618791,306.537181 325.501407,306.302413 325.432356,306.02621 C325.363306,305.750008 325.328781,305.46 325.328781,305.156178 C325.328781,304.852355 325.356401,304.603777 325.411641,304.410435 C325.549742,303.858031 325.556647,303.561118 325.432356,303.519687 C325.308065,303.478257 325.011152,303.664691 324.541608,304.078994 C324.210166,304.355196 323.844203,304.769494 323.44371,305.321898 C323.043216,305.874303 322.601299,306.461224 322.117946,307.082679 C321.634592,307.704134 321.109815,308.318675 320.5436,308.92632 C319.977386,309.533965 319.349035,310.031121 318.658529,310.417805 C318.492808,310.500665 318.292564,310.569715 318.057793,310.624955 C317.823021,310.680196 317.595157,310.687101 317.374195,310.64567 C317.153234,310.60424 316.95299,310.514476 316.773458,310.376374 C316.593927,310.238273 316.476543,310.031125 316.421302,309.754922 C316.421302,309.672062 316.455827,309.499438 316.524878,309.237046 C316.593928,308.974654 316.683693,308.698455 316.794173,308.408443 C316.904654,308.118431 317.008229,307.835328 317.104899,307.559125 C317.20157,307.282923 317.263715,307.103394 317.291335,307.020534 C317.429436,306.63385 317.57444,306.240268 317.726351,305.839775 C317.878263,305.439282 318.037077,305.045699 318.202798,304.659016 C318.258038,304.520915 318.299468,304.403531 318.327088,304.30686 C318.354709,304.210189 318.396138,304.106615 318.451379,303.996134 C318.64472,303.52659 318.920918,303.319442 319.279981,303.374682 C319.500943,303.402302 319.708092,303.505876 319.901433,303.685408 C320.094775,303.864939 320.191444,304.078993 320.191444,304.327575 C320.191444,304.465676 320.163825,304.645205 320.108584,304.866167 C320.053344,305.087129 319.984294,305.321897 319.901433,305.570479 C319.818573,305.819061 319.735713,306.046924 319.652853,306.254076 C319.569992,306.461228 319.514752,306.606232 319.487132,306.689093 C319.431892,306.854814 319.404272,306.965293 319.404272,307.020534 C319.404272,307.075774 319.487131,307.034344 319.652853,306.896243 C319.929055,306.592421 320.315732,306.122884 320.812896,305.487619 C321.31006,304.852354 321.841742,304.224003 322.407956,303.602548 C322.974171,302.981093 323.554187,302.463221 324.148022,302.048918 C324.741857,301.634614 325.287348,301.510325 325.784512,301.676047 L325.825942,301.676047 C326.185005,301.786527 326.481918,302.021296 326.71669,302.380359 C326.951462,302.739422 327.027417,303.084669 326.944556,303.416112 C326.778835,304.051377 326.737405,304.438055 326.820266,304.576156 C326.903126,304.714257 327.07575,304.700447 327.338142,304.534726 C327.600534,304.369004 327.931972,304.092806 328.332465,303.706123 C328.732959,303.31944 329.154161,302.939667 329.596084,302.566794 C330.038008,302.193921 330.48683,301.862484 330.942564,301.572471 C331.398298,301.282459 331.80569,301.137455 332.164753,301.137455 C332.717157,301.137455 333.165979,301.323889 333.511232,301.696762 C333.856485,302.069635 333.918629,302.670366 333.697668,303.498972 C333.449086,304.38282 333.221222,305.280464 333.01407,306.191931 C332.806919,307.103398 332.813824,307.835323 333.034785,308.387728 C333.310988,309.022993 333.815049,309.409671 334.546985,309.547772 C335.278921,309.685873 336.135136,309.672063 337.115654,309.506342 C338.096172,309.34062 339.145724,309.057517 340.264344,308.657024 C341.382963,308.256531 342.473945,307.821519 343.537324,307.351975 C344.600703,306.882431 345.567396,306.405989 346.437433,305.922635 C347.307471,305.439281 347.977251,305.031889 348.446795,304.700446 C348.667757,304.534725 348.888715,304.375911 349.109677,304.224 C349.330639,304.072088 349.551597,304.148043 349.772559,304.451865 Z M353.947796,305.404758 C354.306859,305.266657 354.624487,304.997364 354.900689,304.596871 C355.176891,304.196378 355.176891,303.802795 354.900689,303.416112 C354.707347,303.16753 354.472579,303.057051 354.196377,303.084671 C353.920174,303.112291 353.643976,303.208961 353.367774,303.374682 C353.091572,303.540403 352.836088,303.740647 352.601317,303.975419 C352.366545,304.210191 352.193921,304.410434 352.08344,304.576156 C351.862478,304.879978 351.751999,305.121652 351.751999,305.301183 C351.751999,305.480715 351.972957,305.584289 352.414881,305.611909 L352.539171,305.611909 C352.760133,305.611909 352.994902,305.605004 353.243484,305.591194 C353.492066,305.577384 353.726834,305.515239 353.947796,305.404758 Z M373.047087,306.233361 C369.401217,308.083916 366.224939,309.444192 363.518156,310.314229 C360.811374,311.184266 358.50512,311.688328 356.599324,311.826429 C354.693529,311.96453 353.160629,311.819526 352.00058,311.391413 C350.84053,310.963299 349.984316,310.369473 349.431911,309.609917 C348.879507,308.850361 348.610214,308.007956 348.624024,307.082679 C348.637834,306.157401 348.865697,305.273567 349.307621,304.43115 C349.749545,303.588733 350.37099,302.856808 351.171977,302.235353 C351.972964,301.613898 352.898227,301.247936 353.947796,301.137455 C354.583061,301.054594 355.107837,301.109834 355.522141,301.303175 C355.936444,301.496517 356.254072,301.883194 356.475034,302.463219 C356.695996,303.015624 356.77195,303.59564 356.7029,304.203285 C356.633849,304.81093 356.405986,305.349516 356.019302,305.81906 C355.549759,306.426705 354.900693,306.854812 354.072086,307.103394 C353.243479,307.351976 352.470125,307.393406 351.751999,307.227684 C351.613898,307.200064 351.475799,307.158634 351.337697,307.103394 C351.199596,307.048153 351.082212,307.020534 350.985541,307.020534 C350.888871,307.020534 350.819821,307.061963 350.778391,307.144824 C350.73696,307.227685 350.730055,307.393404 350.757676,307.641986 C350.868157,308.719174 351.413648,309.43729 352.394166,309.796353 C353.374684,310.155415 354.569241,310.28661 355.977872,310.189939 C357.386504,310.093268 358.926308,309.81707 360.597332,309.361336 C362.268356,308.905602 363.8634,308.401541 365.382512,307.849136 C366.901625,307.296732 368.254996,306.758145 369.442665,306.233361 C370.630335,305.708577 371.45893,305.321899 371.928473,305.073317 C372.204676,304.907596 372.480874,304.783307 372.757076,304.700446 C373.337101,304.451864 373.723778,304.369005 373.91712,304.451865 C374.110461,304.534726 374.186416,304.686635 374.144986,304.907597 C374.103555,305.128559 373.972361,305.370232 373.751399,305.632624 C373.530437,305.895016 373.295669,306.09526 373.047087,306.233361 Z" id="SvWosme" stroke="#19234C" fill="#19234C" transform="translate(267.095696, 295.968851) rotate(-4.000000) translate(-267.095696, -295.968851) "></path>
        <g id="Group-3" filter="url(#filter-3)" transform="translate(89.500000, 226.500000) rotate(-6.000000) translate(-89.500000, -226.500000) translate(66.000000, 31.000000)" fill-rule="nonzero">
            <rect id="Rectangle-19" fill="#19234C" x="15" y="361" width="7" height="30" rx="3"></rect>
            <path d="M5,0 L32,0 C34.7614237,-5.07265313e-16 37,2.23857625 37,5 L37,354 L0,354 L0,5 C-3.38176876e-16,2.23857625 2.23857625,5.07265313e-16 5,0 Z" id="Combined-Shape" fill="#A3A7B7"></path>
            <path d="M15.975741,378.875546 L0,354 L37,354 L21.024259,378.875546 C20.1289244,380.269655 18.2729631,380.673993 16.8788533,379.778658 C16.5164822,379.545934 16.2084654,379.237917 15.975741,378.875546 Z" id="Triangle" fill="#8E92A3"></path>
            <rect id="Rectangle-17" fill="#19234C" x="40" y="0" width="7" height="129" rx="3"></rect>
            <path d="M3,0 L44,0 C45.6568542,-3.04359188e-16 47,1.34314575 47,3 L47,3 C47,4.65685425 45.6568542,6 44,6 L0,6 L4.4408921e-16,3 C2.41183085e-16,1.34314575 1.34314575,3.04359188e-16 3,0 Z" id="Rectangle" fill="#19234C"></path>
            <path d="M40.5,68 L43,68 L43,129 L40.5,129 C39.1192881,129 38,127.880712 38,126.5 L38,70.5 C38,69.1192881 39.1192881,68 40.5,68 Z" id="Rectangle-18" fill="#19234C"></path>
            <polygon id="Rectangle-16" fill="#BABDC9" opacity="0.200000003" points="24 0 37 0 37 354.225377 24 375"></polygon>
        </g>
    </g>
</svg>