<svg xmlns="http://www.w3.org/2000/svg" width="28" height="23" viewBox="0 0 28 23">
    <path fill="#19224C" fill-rule="evenodd" stroke="#19224C" stroke-width=".3" d="M24.798 22H3.202C1.988 22 1 21.059 1 19.9V6.25c0-1.158.988-2.1 2.202-2.1h3.963l1.476-2.86A.543.543 0 0 1 9.125 1h9.75c.205 0 .393.113.484.29l1.476 2.86h3.963c1.214 0 2.202.942 2.202 2.1V19.9c0 1.159-.988 2.1-2.202 2.1zm1.119-15.75c0-.578-.502-1.05-1.12-1.05H20.5a.543.543 0 0 1-.484-.29L18.54 2.05H9.46L7.984 4.91a.543.543 0 0 1-.484.29H3.202c-.617 0-1.119.472-1.119 1.05V19.9c0 .58.502 1.05 1.12 1.05h21.595c.617 0 1.119-.47 1.119-1.05V6.25zM14 17.556c-2.987 0-5.417-2.355-5.417-5.25 0-2.894 2.43-5.25 5.417-5.25 2.987 0 5.417 2.356 5.417 5.25 0 2.895-2.43 5.25-5.417 5.25zm0-9.45c-2.39 0-4.333 1.885-4.333 4.2 0 2.316 1.944 4.2 4.333 4.2 2.39 0 4.333-1.884 4.333-4.2 0-2.315-1.944-4.2-4.333-4.2z"/>
</svg>
