<svg xmlns="http://www.w3.org/2000/svg" width="26" height="26" viewBox="0 0 26 26">
    <path fill="#FE4713" fill-rule="evenodd" d="M1.391 18.635C.296 17.54-.272 15.42.128 13.924l2.187-8.16c.4-1.496 1.953-3.048 3.449-3.449l8.16-2.187c1.496-.4 3.616.168 4.71 1.263l5.974 5.973c1.095 1.093 1.663 3.216 1.266 4.711l-2.19 8.16c-.4 1.496-1.953 3.048-3.449 3.449l-8.16 2.19c-1.495.4-3.615-.167-4.71-1.263L1.39 18.635zm14.564-9.273c-.776-.265-1.27-.367-1.234-.827.027-.359.299-.543.797-.502.363.028.583.179.694.405a.86.86 0 0 0 .755.479c.724.016 1.165-.825.711-1.39-.408-.507-1.079-.85-2.025-.923-1.66-.128-2.707.615-2.804 1.88-.104 1.353.806 1.72 2.184 2.184.94.304 1.174.45 1.146.846-.03.384-.365.574-.876.537-.426-.033-.688-.201-.81-.454-.14-.287-.45-.445-.766-.452a.85.85 0 0 0-.632.255s-.359.4-1.058.4c-.508-.013-.958-.286-.958-.997l.017-2.38a1.02 1.02 0 1 0 .53-1.888.993.993 0 0 0-.518.15l.001-.873a.558.558 0 0 0-.557-.561h-.757a.558.558 0 0 0-.558.555l-.033 5.108c-.05.636-.489.88-.98.884-.522 0-.99-.273-.99-.998l.034-3.226a.368.368 0 0 0-.368-.37H5.767a.368.368 0 0 0-.369.365l-.035 3.68c-.013 1.535 1.196 2.225 2.86 2.225.697 0 1.175-.28 1.506-.671.423.456 1.083.671 1.882.671.8 0 1.397-.104 1.99-.441.413.243.94.395 1.577.444 1.724.132 2.774-.645 2.877-1.99.09-1.2-.81-1.68-2.1-2.125zm2.397 4.537c-1.672 0-2.926.94-3.271 2.528-.095-1.488-1.043-2.38-2.442-2.38-.975 0-1.613.439-1.988 1.026-.425-.66-1.138-1.025-2.026-1.025-.824 0-3.426-.1-3.426 3.243v2.434a.913.913 0 1 0 1.825 0v-2.673c0-.776.438-1.3 1.163-1.3.663 0 1.05.462 1.05 1.29v2.688a.913.913 0 0 0 1.826 0v-2.903c.072-.65.476-1.076 1.126-1.076.7 0 1.075.463 1.075 1.29v2.689a.913.913 0 1 0 1.825 0V18.3c.359 1.559 1.613 2.492 3.313 2.492.799 0 1.557-.244 2.108-.645l.056-.04c.019-.014.043-.03.063-.047 0 0 0-.006.005-.008.03-.025.062-.048.09-.072.535-.489.228-1.387-.49-1.481a.86.86 0 0 0-.82.358c-.208.272-.569.426-1.062.426-.845 0-1.345-.526-1.384-1.346h3.953a.596.596 0 0 0 .596-.595v-.148c0-2.065-1.256-3.295-3.165-3.295zm-1.384 2.795c.05-.846.573-1.332 1.37-1.332.847 0 1.256.525 1.295 1.332h-2.665zM6.378 6.386a1.02 1.02 0 1 0 .008-2.04 1.02 1.02 0 0 0-.007 2.04z"/>
</svg>
