<svg xmlns="http://www.w3.org/2000/svg" width="19" height="19" viewBox="0 0 19 19">
    <path fill="#19224C" fill-rule="evenodd" stroke="#19224C" stroke-width=".3" d="M17.698 10.886l-1.935.298a6.389 6.389 0 0 1-.636 1.539l1.18 1.547a.354.354 0 0 1-.03.465l-1.498 1.507a.353.353 0 0 1-.462.036l-1.578-1.161a6.447 6.447 0 0 1-1.545.642l-.256 1.926a.354.354 0 0 1-.35.307L8.466 18h-.001a.354.354 0 0 1-.35-.3l-.296-1.934a6.478 6.478 0 0 1-1.535-.63l-1.555 1.172a.353.353 0 0 1-.463-.031L2.757 14.78a.354.354 0 0 1-.036-.46l1.152-1.578a6.42 6.42 0 0 1-.65-1.567l-1.905-.237a.354.354 0 0 1-.31-.35L1 8.466c0-.175.128-.325.301-.351l1.931-.291a6.43 6.43 0 0 1 .656-1.565L2.695 4.733a.355.355 0 0 1 .028-.468l1.499-1.508a.354.354 0 0 1 .465-.032l1.561 1.188c.491-.284 1.014-.5 1.56-.646l.25-1.952a.354.354 0 0 1 .35-.31L10.534 1c.177 0 .326.129.351.303l.285 1.96a6.477 6.477 0 0 1 1.527.626l1.573-1.197a.353.353 0 0 1 .464.03L16.24 4.22c.126.125.14.323.034.465l-1.18 1.566a6.4 6.4 0 0 1 .657 1.558l1.931.253a.353.353 0 0 1 .309.35l.007 2.122a.354.354 0 0 1-.3.351zm-.413-2.162l-1.863-.244a.353.353 0 0 1-.299-.27 5.712 5.712 0 0 0-.753-1.789.355.355 0 0 1 .015-.404l1.138-1.512-1.07-1.063-1.517 1.156a.355.355 0 0 1-.4.019 5.735 5.735 0 0 0-1.76-.721.355.355 0 0 1-.272-.295l-.276-1.892-1.507.004-.242 1.884a.354.354 0 0 1-.273.3 5.732 5.732 0 0 0-1.791.743.353.353 0 0 1-.404-.017L4.505 3.477l-1.06 1.066 1.153 1.473c.092.12.1.283.02.41a5.712 5.712 0 0 0-.755 1.793.355.355 0 0 1-.292.27l-1.862.28.006 1.505 1.838.229c.148.018.27.127.302.273.142.634.392 1.238.743 1.795a.354.354 0 0 1-.014.398l-1.112 1.523 1.075 1.066 1.5-1.131a.351.351 0 0 1 .4-.019c.549.34 1.143.584 1.765.725.142.033.25.148.272.292l.285 1.866 1.508-.006.246-1.858a.355.355 0 0 1 .272-.298 5.738 5.738 0 0 0 1.775-.738.356.356 0 0 1 .398.015l1.524 1.12 1.065-1.072-1.139-1.492a.354.354 0 0 1-.018-.403 5.7 5.7 0 0 0 .73-1.768.354.354 0 0 1 .292-.271l1.867-.288-.004-1.508zm-7.82 4.308A3.546 3.546 0 0 1 5.923 9.49a3.546 3.546 0 0 1 3.542-3.542 3.546 3.546 0 0 1 3.54 3.542 3.546 3.546 0 0 1-3.54 3.542zm0-6.376A2.836 2.836 0 0 0 6.63 9.49a2.836 2.836 0 0 0 2.834 2.833 2.836 2.836 0 0 0 2.833-2.833 2.836 2.836 0 0 0-2.833-2.834z" opacity=".5"/>
</svg>
